<mxfile host="app.diagrams.net" modified="2024-02-28T15:45:30.824Z" agent="Mozilla/5.0 (Windows NT 10.0; Win64; x64) AppleWebKit/537.36 (KHTML, like Gecko) Chrome/122.0.0.0 Safari/537.36" etag="MUmn0cgUw7tQIyruH1qz" version="23.1.7" type="github">
  <diagram id="C5RBs43oDa-KdzZeNtuy" name="Page-1">
    <mxGraphModel dx="1050" dy="522" grid="1" gridSize="10" guides="1" tooltips="1" connect="1" arrows="1" fold="1" page="1" pageScale="1" pageWidth="827" pageHeight="1169" background="none" math="0" shadow="0">
      <root>
        <mxCell id="WIyWlLk6GJQsqaUBKTNV-0" />
        <mxCell id="WIyWlLk6GJQsqaUBKTNV-1" parent="WIyWlLk6GJQsqaUBKTNV-0" />
        <mxCell id="OQ_kHlhKaLLF1bTOe5wM-1" value="" style="edgeStyle=orthogonalEdgeStyle;rounded=0;orthogonalLoop=1;jettySize=auto;html=1;verticalAlign=bottom;" edge="1" parent="WIyWlLk6GJQsqaUBKTNV-1" target="OQ_kHlhKaLLF1bTOe5wM-0">
          <mxGeometry relative="1" as="geometry">
            <mxPoint x="150" y="100" as="sourcePoint" />
          </mxGeometry>
        </mxCell>
        <mxCell id="OQ_kHlhKaLLF1bTOe5wM-4" value="" style="edgeStyle=orthogonalEdgeStyle;rounded=0;orthogonalLoop=1;jettySize=auto;html=1;" edge="1" parent="WIyWlLk6GJQsqaUBKTNV-1" source="OQ_kHlhKaLLF1bTOe5wM-0" target="OQ_kHlhKaLLF1bTOe5wM-3">
          <mxGeometry relative="1" as="geometry" />
        </mxCell>
        <mxCell id="OQ_kHlhKaLLF1bTOe5wM-0" value="&lt;h2&gt;Gather Requirements&lt;/h2&gt;" style="whiteSpace=wrap;html=1;fontFamily=Times New Roman;rounded=1;glass=0;strokeWidth=1;shadow=0;fillColor=#fff2cc;strokeColor=#d6b656;" vertex="1" parent="WIyWlLk6GJQsqaUBKTNV-1">
          <mxGeometry x="190" y="75" width="120" height="50" as="geometry" />
        </mxCell>
        <mxCell id="OQ_kHlhKaLLF1bTOe5wM-6" value="" style="edgeStyle=orthogonalEdgeStyle;rounded=0;orthogonalLoop=1;jettySize=auto;html=1;" edge="1" parent="WIyWlLk6GJQsqaUBKTNV-1" source="OQ_kHlhKaLLF1bTOe5wM-3" target="OQ_kHlhKaLLF1bTOe5wM-5">
          <mxGeometry relative="1" as="geometry" />
        </mxCell>
        <mxCell id="OQ_kHlhKaLLF1bTOe5wM-3" value="&lt;h2 style=&quot;border-color: var(--border-color);&quot;&gt;Create Wireframe&lt;/h2&gt;" style="whiteSpace=wrap;html=1;fontFamily=Times New Roman;rounded=1;glass=0;strokeWidth=1;shadow=0;fillColor=#fff2cc;strokeColor=#d6b656;" vertex="1" parent="WIyWlLk6GJQsqaUBKTNV-1">
          <mxGeometry x="353.5" y="75" width="120" height="50" as="geometry" />
        </mxCell>
        <mxCell id="OQ_kHlhKaLLF1bTOe5wM-8" value="" style="edgeStyle=orthogonalEdgeStyle;rounded=0;orthogonalLoop=1;jettySize=auto;html=1;" edge="1" parent="WIyWlLk6GJQsqaUBKTNV-1" source="OQ_kHlhKaLLF1bTOe5wM-5" target="OQ_kHlhKaLLF1bTOe5wM-7">
          <mxGeometry relative="1" as="geometry" />
        </mxCell>
        <mxCell id="OQ_kHlhKaLLF1bTOe5wM-5" value="&lt;h2 style=&quot;border-color: var(--border-color);&quot;&gt;Design Mockup&lt;/h2&gt;" style="whiteSpace=wrap;html=1;fontFamily=Times New Roman;rounded=1;glass=0;strokeWidth=1;shadow=0;fillColor=#fff2cc;strokeColor=#d6b656;" vertex="1" parent="WIyWlLk6GJQsqaUBKTNV-1">
          <mxGeometry x="510" y="75" width="120" height="50" as="geometry" />
        </mxCell>
        <mxCell id="OQ_kHlhKaLLF1bTOe5wM-10" value="" style="edgeStyle=orthogonalEdgeStyle;rounded=0;orthogonalLoop=1;jettySize=auto;html=1;" edge="1" parent="WIyWlLk6GJQsqaUBKTNV-1" source="OQ_kHlhKaLLF1bTOe5wM-7" target="OQ_kHlhKaLLF1bTOe5wM-9">
          <mxGeometry relative="1" as="geometry" />
        </mxCell>
        <mxCell id="OQ_kHlhKaLLF1bTOe5wM-7" value="&lt;h2 style=&quot;border-color: var(--border-color);&quot;&gt;Develop Front-end&lt;/h2&gt;" style="whiteSpace=wrap;html=1;fontFamily=Times New Roman;rounded=1;glass=0;strokeWidth=1;shadow=0;fillColor=#e1d5e7;strokeColor=#9673a6;" vertex="1" parent="WIyWlLk6GJQsqaUBKTNV-1">
          <mxGeometry x="670" y="75" width="120" height="50" as="geometry" />
        </mxCell>
        <mxCell id="OQ_kHlhKaLLF1bTOe5wM-13" value="" style="edgeStyle=orthogonalEdgeStyle;rounded=0;orthogonalLoop=1;jettySize=auto;html=1;" edge="1" parent="WIyWlLk6GJQsqaUBKTNV-1" source="OQ_kHlhKaLLF1bTOe5wM-9" target="OQ_kHlhKaLLF1bTOe5wM-12">
          <mxGeometry relative="1" as="geometry" />
        </mxCell>
        <mxCell id="OQ_kHlhKaLLF1bTOe5wM-9" value="&lt;h2 style=&quot;border-color: var(--border-color);&quot;&gt;Develop Back-end&lt;/h2&gt;" style="whiteSpace=wrap;html=1;fontFamily=Times New Roman;rounded=1;glass=0;strokeWidth=1;shadow=0;fillColor=#e1d5e7;strokeColor=#9673a6;" vertex="1" parent="WIyWlLk6GJQsqaUBKTNV-1">
          <mxGeometry x="670" y="190" width="120" height="50" as="geometry" />
        </mxCell>
        <mxCell id="OQ_kHlhKaLLF1bTOe5wM-15" value="" style="edgeStyle=orthogonalEdgeStyle;rounded=0;orthogonalLoop=1;jettySize=auto;html=1;" edge="1" parent="WIyWlLk6GJQsqaUBKTNV-1" source="OQ_kHlhKaLLF1bTOe5wM-12" target="OQ_kHlhKaLLF1bTOe5wM-14">
          <mxGeometry relative="1" as="geometry" />
        </mxCell>
        <mxCell id="OQ_kHlhKaLLF1bTOe5wM-12" value="&lt;h2 style=&quot;border-color: var(--border-color);&quot;&gt;Testing&lt;/h2&gt;" style="whiteSpace=wrap;html=1;fontFamily=Times New Roman;rounded=1;glass=0;strokeWidth=1;shadow=0;fillColor=#bac8d3;strokeColor=#23445d;" vertex="1" parent="WIyWlLk6GJQsqaUBKTNV-1">
          <mxGeometry x="510" y="190" width="120" height="50" as="geometry" />
        </mxCell>
        <mxCell id="OQ_kHlhKaLLF1bTOe5wM-17" value="" style="edgeStyle=orthogonalEdgeStyle;rounded=0;orthogonalLoop=1;jettySize=auto;html=1;" edge="1" parent="WIyWlLk6GJQsqaUBKTNV-1" source="OQ_kHlhKaLLF1bTOe5wM-14" target="OQ_kHlhKaLLF1bTOe5wM-16">
          <mxGeometry relative="1" as="geometry" />
        </mxCell>
        <mxCell id="OQ_kHlhKaLLF1bTOe5wM-14" value="&lt;h2 style=&quot;border-color: var(--border-color);&quot;&gt;Deploy to Server&lt;/h2&gt;" style="whiteSpace=wrap;html=1;fontFamily=Times New Roman;rounded=1;glass=0;strokeWidth=1;shadow=0;fillColor=#bac8d3;strokeColor=#23445d;" vertex="1" parent="WIyWlLk6GJQsqaUBKTNV-1">
          <mxGeometry x="354" y="190" width="120" height="50" as="geometry" />
        </mxCell>
        <mxCell id="OQ_kHlhKaLLF1bTOe5wM-19" value="" style="edgeStyle=orthogonalEdgeStyle;rounded=0;orthogonalLoop=1;jettySize=auto;html=1;" edge="1" parent="WIyWlLk6GJQsqaUBKTNV-1" source="OQ_kHlhKaLLF1bTOe5wM-16">
          <mxGeometry relative="1" as="geometry">
            <mxPoint x="150" y="215" as="targetPoint" />
          </mxGeometry>
        </mxCell>
        <mxCell id="OQ_kHlhKaLLF1bTOe5wM-16" value="&lt;h2 style=&quot;border-color: var(--border-color);&quot;&gt;Release to Public&lt;/h2&gt;" style="whiteSpace=wrap;html=1;fontFamily=Times New Roman;rounded=1;glass=0;strokeWidth=1;shadow=0;fillColor=#bac8d3;strokeColor=#23445d;" vertex="1" parent="WIyWlLk6GJQsqaUBKTNV-1">
          <mxGeometry x="190" y="190" width="120" height="50" as="geometry" />
        </mxCell>
        <mxCell id="OQ_kHlhKaLLF1bTOe5wM-20" value="&lt;h2&gt;Start&lt;/h2&gt;" style="ellipse;whiteSpace=wrap;html=1;fillColor=#dae8fc;strokeColor=#6c8ebf;" vertex="1" parent="WIyWlLk6GJQsqaUBKTNV-1">
          <mxGeometry x="30" y="75" width="120" height="50" as="geometry" />
        </mxCell>
        <mxCell id="OQ_kHlhKaLLF1bTOe5wM-21" value="&lt;h2&gt;&lt;font face=&quot;Times New Roman&quot;&gt;End&lt;/font&gt;&lt;/h2&gt;" style="ellipse;whiteSpace=wrap;html=1;fillColor=#dae8fc;strokeColor=#6c8ebf;" vertex="1" parent="WIyWlLk6GJQsqaUBKTNV-1">
          <mxGeometry x="30" y="187.5" width="120" height="55" as="geometry" />
        </mxCell>
      </root>
    </mxGraphModel>
  </diagram>
</mxfile>
